<svg width="845" height="1081" viewBox="0 0 845 1081" fill="none" xmlns="http://www.w3.org/2000/svg">
<path d="M541.25 1081C502.917 1081 468.125 1072.46 436.875 1055.37C405.625 1037.86 379.792 1013.69 359.375 982.841C338.958 949.079 326.667 912.4 322.5 872.803C320.417 861.966 319.375 851.337 319.375 840.917C319.375 804.654 333.542 767.766 361.875 730.253L369.375 719.625C391.458 688.364 413.958 657.311 436.875 626.467C466.042 587.287 494.583 547.482 522.5 507.051C537.917 487.044 555.833 477.04 576.25 477.04C587.083 477.04 598.75 479.958 611.25 485.794C631.667 498.298 641.875 517.054 641.875 542.063C641.875 553.317 638.75 564.154 632.5 574.574C624.167 587.495 615.417 600.208 606.25 612.713C558.75 678.152 508.333 741.09 455 801.528C406.25 858.631 355.417 914.067 302.5 967.836C247.083 1025.36 207.292 1057.87 183.125 1065.37C166.458 1070.37 149.167 1072.87 131.25 1072.87L118.75 1072.25C77.9167 1067.25 46.0417 1047.86 23.125 1014.1C8.54167 991.177 0.833333 966.585 0 940.326C0 911.149 1.875 885.099 5.625 862.174C21.0417 744.217 45.4167 628.135 78.75 513.928C110.417 400.556 152.917 291.351 206.25 186.315C237.5 126.294 271.458 79.8194 308.125 46.8913C346.042 15.6304 386.042 0 428.125 0C452.708 0 477.5 6.04376 502.5 18.1313C532.917 33.9701 555.417 57.52 570 88.7808C581.25 112.956 586.875 137.756 586.875 163.182C586.875 208.197 568.542 270.511 531.875 350.121C451.875 520.18 321.667 659.395 141.25 767.766C131.25 773.185 121.25 775.894 111.25 775.894C86.6667 775.894 67.5 764.849 53.75 742.758C47.9167 732.337 45 722.126 45 712.122C45 687.947 56.25 668.774 78.75 654.602C97.5 643.348 115.833 631.677 133.75 619.59L148.125 609.586C148.958 608.753 150.417 607.711 152.5 606.46C154.583 604.793 156.458 603.126 158.125 601.459L151.25 607.086C155.833 603.334 160.208 600 164.375 597.082C168.542 594.164 172.292 591.247 175.625 588.329C223.958 552.067 270 507.885 313.75 455.783C316.25 452.032 318.75 448.906 321.25 446.405L322.5 443.904L317.5 451.407L326.875 439.527C362.708 394.095 393.333 343.869 418.75 288.85C420.833 283.848 423.125 279.055 425.625 274.47C425.208 274.47 424.792 275.095 424.375 276.346C423.958 277.596 423.542 278.847 423.125 280.097C422.708 280.931 422.292 281.764 421.875 282.598C421.875 283.015 421.667 283.223 421.25 283.223L424.375 276.346C425.625 272.178 428.125 266.134 431.875 258.215C440.625 236.957 448.125 215.075 454.375 192.567C455.208 185.481 456.667 178.395 458.75 171.309V173.81L457.5 180.062L458.125 171.935V162.556C458.125 158.388 457.917 155.887 457.5 155.054L456.875 156.304C456.875 157.555 457.5 159.847 458.75 163.182L454.375 142.549L456.875 147.551V148.176C456.042 148.176 454.167 145.467 451.25 140.049C450 137.131 448.958 135.672 448.125 135.672C448.125 139.007 450 141.299 453.75 142.549L443.125 131.921C446.875 136.089 449.375 138.173 450.625 138.173V137.548C450.208 137.131 449.167 136.506 447.5 135.672C446.25 134.838 444.375 133.796 441.875 132.546C439.375 131.296 437.083 129.837 435 128.169L443.75 131.921L436.875 130.045C436.458 129.628 435.417 129.42 433.75 129.42C432.5 129.003 431.25 128.586 430 128.169H432.5C433.333 128.586 435.833 128.795 440 128.795H419.375C421.458 129.211 423.75 129.42 426.25 129.42L427.5 128.795C427.5 128.378 427.083 128.169 426.25 128.169L407.5 133.171L415.625 130.045C405.625 135.047 400.417 137.756 400 138.173C399.583 138.59 397.5 140.049 393.75 142.549C396.25 140.049 398.333 138.381 400 137.548H400.625V136.923L397.5 139.423V140.049C389.167 147.134 381.25 154.845 373.75 163.182L368.125 169.434L373.75 162.556L373.125 163.807C370.625 166.308 369.375 167.975 369.375 168.809L368.75 169.434C365 174.019 361.458 178.812 358.125 183.814C336.458 216.325 317.708 249.045 301.875 281.973C297.292 291.143 293.333 299.896 290 308.232L286.875 314.484L290 307.607C287.5 314.276 284.583 320.945 281.25 327.614L276.25 340.743C235.833 439.944 202.708 541.229 176.875 644.599C161.458 707.954 148.333 774.227 137.5 843.418L136.875 847.794L137.5 840.292L133.125 870.927C130.208 891.768 128.75 914.276 128.75 938.451L128.125 934.074V929.072C128.125 931.573 128.125 933.657 128.125 935.324C128.542 936.575 129.167 938.451 130 940.951C131.25 943.035 132.083 945.12 132.5 947.204C130.833 940.535 129.583 937.2 128.75 937.2L129.375 940.951C131.875 943.452 133.333 945.953 133.75 948.454C133.75 948.871 133.542 949.079 133.125 949.079L127.5 940.951C128.75 940.951 130.625 942.202 133.125 944.703L136.25 949.079C135.417 949.079 134.375 948.246 133.125 946.578C131.875 944.911 130.417 943.661 128.75 942.827C130 943.661 131.458 944.703 133.125 945.953C135.208 947.204 136.458 947.829 136.875 947.829C137.292 947.829 137.5 948.037 137.5 948.454L128.75 944.078H130L133.125 945.328H131.875C131.458 944.911 130.625 944.703 129.375 944.703C128.125 944.286 127.083 943.869 126.25 943.452C125 943.452 124.167 943.661 123.75 944.078H136.25C135.417 944.911 133.75 945.328 131.25 945.328H129.375V944.703H130.625C136.042 943.035 141.25 942.202 146.25 942.202L147.5 941.577V942.202L133.75 947.204C133.75 946.787 133.958 946.578 134.375 946.578C135.208 946.162 136.042 945.745 136.875 945.328C137.708 944.911 138.333 944.494 138.75 944.078C139.583 943.661 141.667 942.41 145 940.326C144.167 941.16 142.708 942.41 140.625 944.078C138.542 945.328 136.875 946.37 135.625 947.204C134.792 948.037 134.167 948.454 133.75 948.454C134.167 948.037 134.792 947.62 135.625 947.204C136.458 946.787 137.708 945.745 139.375 944.078C181.042 908.232 222.708 867.384 264.375 821.535C315.208 766.933 369.792 704.411 428.125 633.97L434.375 627.093L435.625 624.592C435.625 625.008 433.333 627.926 428.75 633.345C430.417 631.677 433.125 628.343 436.875 623.341C473.125 577.075 501.667 538.312 522.5 507.051L632.5 574.574C605 615.005 576.667 654.602 547.5 693.366C491.25 769.225 458.542 815.491 449.375 832.164C449.375 832.581 448.958 833.623 448.125 835.29C447.708 836.54 447.083 837.374 446.25 837.791C447.917 833.206 448.958 830.705 449.375 830.288L447.5 837.791V834.665C447.5 837.582 447.917 840.708 448.75 844.043C448.75 846.127 448.542 847.586 448.125 848.419L447.5 840.917L450.625 859.673C453.958 878.013 457.708 892.393 461.875 902.813L458.125 894.06L460.625 900.312C463.542 906.565 466.875 912.4 470.625 917.818C470.625 918.652 471.25 919.902 472.5 921.57L474.375 924.071L468.125 915.318L470.625 918.444C472.292 921.361 476.25 925.738 482.5 931.573C485 934.074 486.667 935.741 487.5 936.575C488.333 936.992 488.75 937.409 488.75 937.825V937.2L487.5 935.95C486.25 935.533 485 934.908 483.75 934.074C482.917 932.824 481.875 931.99 480.625 931.573C479.792 930.74 479.375 930.114 479.375 929.698L483.125 932.198C491.042 938.451 497.708 942.41 503.125 944.078L508.125 947.204C507.708 947.204 507.083 947.204 506.25 947.204C505.833 946.787 505.208 946.37 504.375 945.953C503.958 945.536 502.5 944.703 500 943.452L507.5 945.953C513.75 948.454 520 950.33 526.25 951.58C527.917 951.58 530 951.997 532.5 952.831C532.083 952.831 531.875 952.622 531.875 952.205C528.542 952.205 526.25 951.997 525 951.58L540 952.205C541.667 952.205 543.333 951.997 545 951.58C546.667 951.163 548.125 950.955 549.375 950.955L553.125 951.58C551.875 951.58 550.833 951.789 550 952.205L545 952.831L550 951.58C552.917 951.58 558.75 950.121 567.5 947.204C569.167 946.37 570.625 945.745 571.875 945.328C573.542 944.911 574.583 944.494 575 944.078H574.375C572.292 946.162 570.625 947.204 569.375 947.204L566.875 947.829C567.292 947.829 567.708 947.62 568.125 947.204C568.542 946.787 569.167 946.578 570 946.578C572.5 945.745 574.167 944.911 575 944.078C587.917 938.242 600.208 931.156 611.875 922.82L615 921.57L612.5 923.445C610.833 924.279 609.375 925.321 608.125 926.571H607.5L618.125 917.818C628.542 909.065 638.125 899.479 646.875 889.058L652.5 882.181L646.25 889.684L650 884.682C652.083 882.598 656.042 877.179 661.875 868.426C682.708 835.498 703.958 793.817 725.625 743.383C736.458 723.376 754.583 713.372 780 713.372C803.333 713.372 820.833 721.709 832.5 738.381C840.833 750.885 845 763.598 845 776.519C845 788.19 841.875 799.652 835.625 810.906L826.875 831.538C818.542 849.878 810 868.009 801.25 885.932C762.5 961.792 712.917 1016.39 652.5 1049.74C617.5 1069.33 580.417 1079.75 541.25 1081Z" fill="white" fill-opacity="0.9"/>
</svg>
